OFF
224 168 0
1.5 1.5 1.5
2.5 1.5 1.5
2.5 2.5 1.5
1.5 2.5 1.5
1.5 1.5 2.5
2.5 1.5 2.5
2.5 2.5 2.5
1.5 2.5 2.5
2.5 2.5 2.5
3.5 2.5 2.5
3.5 3.5 2.5
2.5 3.5 2.5
2.5 2.5 3.5
3.5 2.5 3.5
3.5 3.5 3.5
2.5 3.5 3.5
2.5 2.5 3.5
3.5 2.5 3.5
3.5 3.5 3.5
2.5 3.5 3.5
2.5 2.5 4.5
3.5 2.5 4.5
3.5 3.5 4.5
2.5 3.5 4.5
2.5 2.5 4.5
3.5 2.5 4.5
3.5 3.5 4.5
2.5 3.5 4.5
2.5 2.5 5.5
3.5 2.5 5.5
3.5 3.5 5.5
2.5 3.5 5.5
2.5 3.5 2.5
3.5 3.5 2.5
3.5 4.5 2.5
2.5 4.5 2.5
2.5 3.5 3.5
3.5 3.5 3.5
3.5 4.5 3.5
2.5 4.5 3.5
2.5 3.5 3.5
3.5 3.5 3.5
3.5 4.5 3.5
2.5 4.5 3.5
2.5 3.5 4.5
3.5 3.5 4.5
3.5 4.5 4.5
2.5 4.5 4.5
2.5 3.5 4.5
3.5 3.5 4.5
3.5 4.5 4.5
2.5 4.5 4.5
2.5 3.5 5.5
3.5 3.5 5.5
3.5 4.5 5.5
2.5 4.5 5.5
2.5 4.5 2.5
3.5 4.5 2.5
3.5 5.5 2.5
2.5 5.5 2.5
2.5 4.5 3.5
3.5 4.5 3.5
3.5 5.5 3.5
2.5 5.5 3.5
2.5 4.5 3.5
3.5 4.5 3.5
3.5 5.5 3.5
2.5 5.5 3.5
2.5 4.5 4.5
3.5 4.5 4.5
3.5 5.5 4.5
2.5 5.5 4.5
2.5 4.5 4.5
3.5 4.5 4.5
3.5 5.5 4.5
2.5 5.5 4.5
2.5 4.5 5.5
3.5 4.5 5.5
3.5 5.5 5.5
2.5 5.5 5.5
3.5 2.5 2.5
4.5 2.5 2.5
4.5 3.5 2.5
3.5 3.5 2.5
3.5 2.5 3.5
4.5 2.5 3.5
4.5 3.5 3.5
3.5 3.5 3.5
3.5 2.5 3.5
4.5 2.5 3.5
4.5 3.5 3.5
3.5 3.5 3.5
3.5 2.5 4.5
4.5 2.5 4.5
4.5 3.5 4.5
3.5 3.5 4.5
3.5 2.5 4.5
4.5 2.5 4.5
4.5 3.5 4.5
3.5 3.5 4.5
3.5 2.5 5.5
4.5 2.5 5.5
4.5 3.5 5.5
3.5 3.5 5.5
3.5 3.5 2.5
4.5 3.5 2.5
4.5 4.5 2.5
3.5 4.5 2.5
3.5 3.5 3.5
4.5 3.5 3.5
4.5 4.5 3.5
3.5 4.5 3.5
3.5 3.5 3.5
4.5 3.5 3.5
4.5 4.5 3.5
3.5 4.5 3.5
3.5 3.5 4.5
4.5 3.5 4.5
4.5 4.5 4.5
3.5 4.5 4.5
3.5 3.5 4.5
4.5 3.5 4.5
4.5 4.5 4.5
3.5 4.5 4.5
3.5 3.5 5.5
4.5 3.5 5.5
4.5 4.5 5.5
3.5 4.5 5.5
3.5 4.5 2.5
4.5 4.5 2.5
4.5 5.5 2.5
3.5 5.5 2.5
3.5 4.5 3.5
4.5 4.5 3.5
4.5 5.5 3.5
3.5 5.5 3.5
3.5 4.5 3.5
4.5 4.5 3.5
4.5 5.5 3.5
3.5 5.5 3.5
3.5 4.5 4.5
4.5 4.5 4.5
4.5 5.5 4.5
3.5 5.5 4.5
3.5 4.5 4.5
4.5 4.5 4.5
4.5 5.5 4.5
3.5 5.5 4.5
3.5 4.5 5.5
4.5 4.5 5.5
4.5 5.5 5.5
3.5 5.5 5.5
4.5 2.5 2.5
5.5 2.5 2.5
5.5 3.5 2.5
4.5 3.5 2.5
4.5 2.5 3.5
5.5 2.5 3.5
5.5 3.5 3.5
4.5 3.5 3.5
4.5 2.5 3.5
5.5 2.5 3.5
5.5 3.5 3.5
4.5 3.5 3.5
4.5 2.5 4.5
5.5 2.5 4.5
5.5 3.5 4.5
4.5 3.5 4.5
4.5 2.5 4.5
5.5 2.5 4.5
5.5 3.5 4.5
4.5 3.5 4.5
4.5 2.5 5.5
5.5 2.5 5.5
5.5 3.5 5.5
4.5 3.5 5.5
4.5 3.5 2.5
5.5 3.5 2.5
5.5 4.5 2.5
4.5 4.5 2.5
4.5 3.5 3.5
5.5 3.5 3.5
5.5 4.5 3.5
4.5 4.5 3.5
4.5 3.5 3.5
5.5 3.5 3.5
5.5 4.5 3.5
4.5 4.5 3.5
4.5 3.5 4.5
5.5 3.5 4.5
5.5 4.5 4.5
4.5 4.5 4.5
4.5 3.5 4.5
5.5 3.5 4.5
5.5 4.5 4.5
4.5 4.5 4.5
4.5 3.5 5.5
5.5 3.5 5.5
5.5 4.5 5.5
4.5 4.5 5.5
4.5 4.5 2.5
5.5 4.5 2.5
5.5 5.5 2.5
4.5 5.5 2.5
4.5 4.5 3.5
5.5 4.5 3.5
5.5 5.5 3.5
4.5 5.5 3.5
4.5 4.5 3.5
5.5 4.5 3.5
5.5 5.5 3.5
4.5 5.5 3.5
4.5 4.5 4.5
5.5 4.5 4.5
5.5 5.5 4.5
4.5 5.5 4.5
4.5 4.5 4.5
5.5 4.5 4.5
5.5 5.5 4.5
4.5 5.5 4.5
4.5 4.5 5.5
5.5 4.5 5.5
5.5 5.5 5.5
4.5 5.5 5.5
4 0 1 2 3 1 0 0 1
4 4 5 6 7 1 0 0 1
4 0 1 5 4 1 0 0 1
4 3 2 6 7 1 0 0 1
4 0 3 7 4 1 0 0 1
4 1 2 6 5 1 0 0 1
4 8 9 10 11 1 0 0 1
4 12 13 14 15 1 0 0 1
4 8 9 13 12 1 0 0 1
4 11 10 14 15 1 0 0 1
4 8 11 15 12 1 0 0 1
4 9 10 14 13 1 0 0 1
4 16 17 18 19 1 0 0 1
4 20 21 22 23 1 0 0 1
4 16 17 21 20 1 0 0 1
4 19 18 22 23 1 0 0 1
4 16 19 23 20 1 0 0 1
4 17 18 22 21 1 0 0 1
4 24 25 26 27 1 0 0 1
4 28 29 30 31 1 0 0 1
4 24 25 29 28 1 0 0 1
4 27 26 30 31 1 0 0 1
4 24 27 31 28 1 0 0 1
4 25 26 30 29 1 0 0 1
4 32 33 34 35 1 0 0 1
4 36 37 38 39 1 0 0 1
4 32 33 37 36 1 0 0 1
4 35 34 38 39 1 0 0 1
4 32 35 39 36 1 0 0 1
4 33 34 38 37 1 0 0 1
4 40 41 42 43 1 0 0 1
4 44 45 46 47 1 0 0 1
4 40 41 45 44 1 0 0 1
4 43 42 46 47 1 0 0 1
4 40 43 47 44 1 0 0 1
4 41 42 46 45 1 0 0 1
4 48 49 50 51 1 0 0 1
4 52 53 54 55 1 0 0 1
4 48 49 53 52 1 0 0 1
4 51 50 54 55 1 0 0 1
4 48 51 55 52 1 0 0 1
4 49 50 54 53 1 0 0 1
4 56 57 58 59 1 0 0 1
4 60 61 62 63 1 0 0 1
4 56 57 61 60 1 0 0 1
4 59 58 62 63 1 0 0 1
4 56 59 63 60 1 0 0 1
4 57 58 62 61 1 0 0 1
4 64 65 66 67 1 0 0 1
4 68 69 70 71 1 0 0 1
4 64 65 69 68 1 0 0 1
4 67 66 70 71 1 0 0 1
4 64 67 71 68 1 0 0 1
4 65 66 70 69 1 0 0 1
4 72 73 74 75 1 0 0 1
4 76 77 78 79 1 0 0 1
4 72 73 77 76 1 0 0 1
4 75 74 78 79 1 0 0 1
4 72 75 79 76 1 0 0 1
4 73 74 78 77 1 0 0 1
4 80 81 82 83 1 0 0 1
4 84 85 86 87 1 0 0 1
4 80 81 85 84 1 0 0 1
4 83 82 86 87 1 0 0 1
4 80 83 87 84 1 0 0 1
4 81 82 86 85 1 0 0 1
4 88 89 90 91 1 0 0 1
4 92 93 94 95 1 0 0 1
4 88 89 93 92 1 0 0 1
4 91 90 94 95 1 0 0 1
4 88 91 95 92 1 0 0 1
4 89 90 94 93 1 0 0 1
4 96 97 98 99 1 0 0 1
4 100 101 102 103 1 0 0 1
4 96 97 101 100 1 0 0 1
4 99 98 102 103 1 0 0 1
4 96 99 103 100 1 0 0 1
4 97 98 102 101 1 0 0 1
4 104 105 106 107 1 0 0 1
4 108 109 110 111 1 0 0 1
4 104 105 109 108 1 0 0 1
4 107 106 110 111 1 0 0 1
4 104 107 111 108 1 0 0 1
4 105 106 110 109 1 0 0 1
4 112 113 114 115 1 0 0 1
4 116 117 118 119 1 0 0 1
4 112 113 117 116 1 0 0 1
4 115 114 118 119 1 0 0 1
4 112 115 119 116 1 0 0 1
4 113 114 118 117 1 0 0 1
4 120 121 122 123 1 0 0 1
4 124 125 126 127 1 0 0 1
4 120 121 125 124 1 0 0 1
4 123 122 126 127 1 0 0 1
4 120 123 127 124 1 0 0 1
4 121 122 126 125 1 0 0 1
4 128 129 130 131 1 0 0 1
4 132 133 134 135 1 0 0 1
4 128 129 133 132 1 0 0 1
4 131 130 134 135 1 0 0 1
4 128 131 135 132 1 0 0 1
4 129 130 134 133 1 0 0 1
4 136 137 138 139 1 0 0 1
4 140 141 142 143 1 0 0 1
4 136 137 141 140 1 0 0 1
4 139 138 142 143 1 0 0 1
4 136 139 143 140 1 0 0 1
4 137 138 142 141 1 0 0 1
4 144 145 146 147 1 0 0 1
4 148 149 150 151 1 0 0 1
4 144 145 149 148 1 0 0 1
4 147 146 150 151 1 0 0 1
4 144 147 151 148 1 0 0 1
4 145 146 150 149 1 0 0 1
4 152 153 154 155 1 0 0 1
4 156 157 158 159 1 0 0 1
4 152 153 157 156 1 0 0 1
4 155 154 158 159 1 0 0 1
4 152 155 159 156 1 0 0 1
4 153 154 158 157 1 0 0 1
4 160 161 162 163 1 0 0 1
4 164 165 166 167 1 0 0 1
4 160 161 165 164 1 0 0 1
4 163 162 166 167 1 0 0 1
4 160 163 167 164 1 0 0 1
4 161 162 166 165 1 0 0 1
4 168 169 170 171 1 0 0 1
4 172 173 174 175 1 0 0 1
4 168 169 173 172 1 0 0 1
4 171 170 174 175 1 0 0 1
4 168 171 175 172 1 0 0 1
4 169 170 174 173 1 0 0 1
4 176 177 178 179 1 0 0 1
4 180 181 182 183 1 0 0 1
4 176 177 181 180 1 0 0 1
4 179 178 182 183 1 0 0 1
4 176 179 183 180 1 0 0 1
4 177 178 182 181 1 0 0 1
4 184 185 186 187 1 0 0 1
4 188 189 190 191 1 0 0 1
4 184 185 189 188 1 0 0 1
4 187 186 190 191 1 0 0 1
4 184 187 191 188 1 0 0 1
4 185 186 190 189 1 0 0 1
4 192 193 194 195 1 0 0 1
4 196 197 198 199 1 0 0 1
4 192 193 197 196 1 0 0 1
4 195 194 198 199 1 0 0 1
4 192 195 199 196 1 0 0 1
4 193 194 198 197 1 0 0 1
4 200 201 202 203 1 0 0 1
4 204 205 206 207 1 0 0 1
4 200 201 205 204 1 0 0 1
4 203 202 206 207 1 0 0 1
4 200 203 207 204 1 0 0 1
4 201 202 206 205 1 0 0 1
4 208 209 210 211 1 0 0 1
4 212 213 214 215 1 0 0 1
4 208 209 213 212 1 0 0 1
4 211 210 214 215 1 0 0 1
4 208 211 215 212 1 0 0 1
4 209 210 214 213 1 0 0 1
4 216 217 218 219 1 0 0 1
4 220 221 222 223 1 0 0 1
4 216 217 221 220 1 0 0 1
4 219 218 222 223 1 0 0 1
4 216 219 223 220 1 0 0 1
4 217 218 222 221 1 0 0 1
